<svg xmlns="http://www.w3.org/2000/svg">
<symbol id="logo"><path d="M61.19 4.603c1.128.09 2.248.178 3.358.268l3.29.262c1.082.088 2.158.171 3.228.259l3.168.252a.566.566 0 0 1 .25.084.727.727 0 0 1 .202.191.985.985 0 0 1 .189.594v4.084c0 .11-.017.215-.05.312a.786.786 0 0 1-.136.252.67.67 0 0 1-.199.168.471.471 0 0 1-.243.057l-2.122-.1c-.712-.034-1.427-.068-2.142-.105-.719-.033-1.44-.07-2.166-.104-.729-.033-1.458-.07-2.193-.104a.284.284 0 0 0-.243.11.401.401 0 0 0-.067.132.552.552 0 0 0-.024.171v4.601c0 .064.007.124.023.178.017.054.041.1.068.138.03.037.064.067.105.09.04.02.087.034.138.034l1.91.037c.63.013 1.261.023 1.889.037.624.013 1.248.023 1.869.037.617.01 1.235.023 1.849.033.087 0 .172.027.25.07a.645.645 0 0 1 .202.182.946.946 0 0 1 .189.585v4.11a.975.975 0 0 1-.05.32.924.924 0 0 1-.14.261.672.672 0 0 1-.202.178.505.505 0 0 1-.25.067c-.613.007-1.23.017-1.848.024-.62.006-1.245.017-1.87.023-.627.007-1.254.017-1.888.024-.635.006-1.27.017-1.91.023a.311.311 0 0 0-.243.121.351.351 0 0 0-.067.138.574.574 0 0 0-.024.174V28.607c0 .064.007.121.023.172.017.05.038.094.068.13a.283.283 0 0 0 .24.111c.745-.033 1.49-.07 2.23-.104.735-.033 1.47-.07 2.2-.104.728-.033 1.45-.07 2.172-.104l2.146-.104a.481.481 0 0 1 .25.057c.077.04.144.094.202.168.057.07.105.158.135.252.03.094.05.201.05.312v4.084a1.022 1.022 0 0 1-.185.594.728.728 0 0 1-.203.192.552.552 0 0 1-.25.084l-3.198.255c-1.08.087-2.166.174-3.255.258-1.1.088-2.203.175-3.317.266-1.12.09-2.247.178-3.38.268a.621.621 0 0 1-.274-.053.639.639 0 0 1-.219-.175.84.84 0 0 1-.145-.265 1.057 1.057 0 0 1-.054-.333V5.432c0-.117.02-.232.05-.332.034-.101.082-.192.142-.266a.657.657 0 0 1 .213-.174.535.535 0 0 1 .26-.057ZM41.12 8.925c.293.83.506 1.716.658 2.633.155.917.253 1.864.314 2.817.06.954.084 1.915.094 2.861.01.947.003 1.874.003 2.764 0 .89.007 1.82-.003 2.767-.01.948-.034 1.908-.094 2.862-.061.953-.16 1.9-.314 2.814-.155.917-.368 1.8-.658 2.63a11.77 11.77 0 0 1-1.461 2.877 10.277 10.277 0 0 1-1.997 2.133 9.79 9.79 0 0 1-2.389 1.404c-.847.349-1.73.577-2.625.691-.044.007-.088.01-.131.017l-.132.014a63.08 63.08 0 0 0-.132.01 7.144 7.144 0 0 1-2.642-.333 8.282 8.282 0 0 1-2.358-1.202 9.413 9.413 0 0 1-2.007-1.998c-.587-.793-1.08-1.7-1.447-2.714a17.013 17.013 0 0 1-.722-2.807 29.244 29.244 0 0 1-.345-3.032 56.33 56.33 0 0 1-.104-3.104c-.01-1.03-.003-2.048-.003-3.029 0-.98-.007-1.998.003-3.029.01-1.03.037-2.072.105-3.103.067-1.03.175-2.048.344-3.032.168-.98.401-1.928.722-2.808.364-1.014.857-1.92 1.447-2.713a9.414 9.414 0 0 1 2.008-1.998 8.285 8.285 0 0 1 2.358-1.203 7.28 7.28 0 0 1 2.51-.339c.044.004.088.004.131.007l.132.01c.044.003.088.007.132.013a10.307 10.307 0 0 1 2.756.709c.843.35 1.646.816 2.389 1.404a10.101 10.101 0 0 1 1.997 2.132c.584.83 1.08 1.787 1.46 2.875Zm-4.993 19.622c.128-.363.226-.883.3-1.505.074-.62.128-1.346.165-2.125a79.2 79.2 0 0 0 .071-2.448 205.926 205.926 0 0 0 0-4.94 69.798 69.798 0 0 0-.07-2.448 28.73 28.73 0 0 0-.166-2.126c-.074-.622-.172-1.142-.3-1.505a4.167 4.167 0 0 0-.523-1.037 3.324 3.324 0 0 0-.75-.77 3.427 3.427 0 0 0-.984-.493 4.85 4.85 0 0 0-1.225-.212h-.135a4.366 4.366 0 0 0-1.181.114 2.907 2.907 0 0 0-1.704 1.122 3.903 3.903 0 0 0-.523 1c-.131.367-.233.894-.314 1.532a32.095 32.095 0 0 0-.172 2.193c-.037.806-.06 1.67-.07 2.536-.014.866-.014 1.74-.014 2.562 0 .823.003 1.692.014 2.562.013.867.033 1.73.07 2.536.038.806.095 1.555.172 2.193.078.638.18 1.168.314 1.534.139.383.314.72.523 1.005a2.92 2.92 0 0 0 1.71 1.121 4.55 4.55 0 0 0 1.185.114h.121a4.855 4.855 0 0 0 1.225-.211 3.253 3.253 0 0 0 1.734-1.263c.216-.302.392-.651.527-1.041ZM52.409 3.894c.958.04 1.896.34 2.76.85.86.507 1.65 1.226 2.317 2.109.665.88 1.215 1.927 1.596 3.1a12.48 12.48 0 0 1 .597 3.841c0 1.36-.206 2.626-.577 3.758a9.783 9.783 0 0 1-1.555 2.976c-.651.839-1.424 1.507-2.264 1.97a5.7 5.7 0 0 1-2.702.733h-.162c-.027 0-.054 0-.081-.004l-.081-.003c-.324.003-.61.01-.874.014-.267.003-.51.006-.756.013-.246.003-.492.007-.759.013-.266.004-.557.01-.884.014a.338.338 0 0 0-.266.134.408.408 0 0 0-.075.148.672.672 0 0 0-.027.191v11.714c0 .127-.02.252-.057.37a1.071 1.071 0 0 1-.158.308.84.84 0 0 1-.233.219.679.679 0 0 1-.287.097c-.368.03-.692.057-.995.08l-.86.071c-.28.024-.56.044-.864.07l-1.01.081a.628.628 0 0 1-.296-.06.718.718 0 0 1-.24-.188.92.92 0 0 1-.158-.29 1.133 1.133 0 0 1-.057-.362V4.153c0-.131.02-.252.057-.363a.947.947 0 0 1 .155-.289.728.728 0 0 1 .233-.188.583.583 0 0 1 .283-.06c.695.053 1.384.11 2.072.164l2.04.161 2.019.162c.668.053 1.332.107 1.993.157H52.365a.068.068 0 0 1 .044-.003Zm-.314 12.882c.368.004.705-.077 1.009-.225.3-.15.566-.37.786-.648.219-.279.391-.614.513-.997.118-.383.182-.813.182-1.276 0-.467-.064-.9-.186-1.293a3.22 3.22 0 0 0-.516-1.031 2.565 2.565 0 0 0-.793-.699 2.308 2.308 0 0 0-1.015-.285 90.031 90.031 0 0 1-.827-.04c-.25-.014-.482-.024-.712-.034-.233-.01-.465-.02-.715-.034-.253-.013-.526-.023-.837-.04a.361.361 0 0 0-.152.03.3.3 0 0 0-.114.09.451.451 0 0 0-.075.145.648.648 0 0 0-.027.188V16.25c0 .07.01.134.027.192a.395.395 0 0 0 .189.245.315.315 0 0 0 .152.033c.31.004.584.01.837.014.253.003.486.006.715.013.233.004.462.007.712.014.25.003.52.01.827.013h.01l.01.003ZM76.63 5.832l1.015.08.867.07c.28.024.557.045.86.068l.992.08c.115.01.216.04.304.088a.824.824 0 0 1 .223.178c.06.07.111.154.151.238.04.088.071.178.095.269.374 1.293.745 2.586 1.12 3.872.371 1.286.746 2.566 1.117 3.845a2811.6 2811.6 0 0 0 1.113 3.819l1.114 3.791a.251.251 0 0 0 .053.104c.01.01.024.02.034.024.014.006.024.006.037.006a.113.113 0 0 0 .054-.016.143.143 0 0 0 .047-.044.315.315 0 0 0 .034-.067.367.367 0 0 0 .014-.09V7.33c0-.105.017-.202.044-.29a.769.769 0 0 1 .124-.231.567.567 0 0 1 .186-.151.475.475 0 0 1 .226-.05c.304.023.567.043.81.063.243.02.465.037.691.054.223.017.446.034.685.054.24.02.496.04.79.06.08.007.158.034.226.077a.7.7 0 0 1 .185.175.935.935 0 0 1 .172.544v24.703a.914.914 0 0 1-.047.292c-.03.091-.074.175-.125.249a.7.7 0 0 1-.185.175.518.518 0 0 1-.226.077c-.344.027-.648.05-.931.074l-.807.064-.81.063c-.286.024-.593.047-.944.074a.921.921 0 0 1-.334-.04.634.634 0 0 1-.233-.134.76.76 0 0 1-.152-.195 1.12 1.12 0 0 1-.09-.218 841.043 841.043 0 0 1-1.108-3.446c-.37-1.155-.738-2.314-1.11-3.472-.37-1.162-.738-2.331-1.11-3.5a4062.5 4062.5 0 0 1-1.113-3.523c-.007-.023-.013-.047-.023-.063a.246.246 0 0 0-.03-.044.095.095 0 0 0-.038-.027.09.09 0 0 0-.04-.01.112.112 0 0 0-.054.017.145.145 0 0 0-.048.043.343.343 0 0 0-.033.071.368.368 0 0 0-.014.094v14.105a.957.957 0 0 1-.179.574.679.679 0 0 1-.195.185.522.522 0 0 1-.24.08l-.833.067-.722.058c-.236.02-.47.037-.726.057-.256.02-.53.04-.843.067a.513.513 0 0 1-.25-.05.58.58 0 0 1-.202-.162.782.782 0 0 1-.135-.245.986.986 0 0 1-.047-.306V6.584a.97.97 0 0 1 .047-.306.776.776 0 0 1 .132-.245.56.56 0 0 1 .195-.161.522.522 0 0 1 .22-.04ZM20.559 7.856c.307.95.533 1.938.702 2.946a31.66 31.66 0 0 1 .347 3.066c.071 1.03.105 2.068.122 3.096s.013 2.045.013 3.036c0 .99.004 2.008-.013 3.036a56.189 56.189 0 0 1-.122 3.1 32.73 32.73 0 0 1-.347 3.065 20.705 20.705 0 0 1-.702 2.946 11.513 11.513 0 0 1-1.572 3.153 11.1 11.1 0 0 1-2.26 2.344 11.537 11.537 0 0 1-5.574 2.304c-.048.007-.098.01-.145.017-.048.006-.098.01-.145.013l-.146.01a8.083 8.083 0 0 1-2.969-.37 9.225 9.225 0 0 1-2.631-1.336 10.319 10.319 0 0 1-2.22-2.196 11.413 11.413 0 0 1-1.59-2.942 18.004 18.004 0 0 1-.805-3.093 31.206 31.206 0 0 1-.382-3.325 60.402 60.402 0 0 1-.114-3.401c-.01-1.129-.004-2.244-.004-3.322 0-1.078-.007-2.193.004-3.321.01-1.128.04-2.27.114-3.402.075-1.128.193-2.247.382-3.325.188-1.078.448-2.115.806-3.093a11.49 11.49 0 0 1 1.589-2.945A10.41 10.41 0 0 1 5.12 1.721 9.267 9.267 0 0 1 7.752.384a8.173 8.173 0 0 1 2.969-.37l.145.011c.047.003.098.01.145.013.047.007.098.01.145.017A11.537 11.537 0 0 1 16.73 2.36a11.188 11.188 0 0 1 2.26 2.344 11.65 11.65 0 0 1 1.569 3.153Zm-5.54 21.52c.142-.4.25-.97.334-1.652.084-.682.142-1.478.182-2.334.04-.853.064-1.767.078-2.687.013-.917.017-1.837.017-2.706 0-.87-.004-1.79-.017-2.707a83.282 83.282 0 0 0-.078-2.683 31.867 31.867 0 0 0-.182-2.331c-.084-.682-.192-1.25-.334-1.649a4.583 4.583 0 0 0-.58-1.138 3.604 3.604 0 0 0-.834-.843 3.772 3.772 0 0 0-1.093-.541 5.244 5.244 0 0 0-1.36-.232c-.013 0-.023 0-.036-.003-.014-.003-.024 0-.037 0H11.008a4.951 4.951 0 0 0-1.316.124 3.488 3.488 0 0 0-1.073.453c-.317.205-.59.464-.827.78a4.246 4.246 0 0 0-.583 1.098c-.149.403-.26.984-.348 1.682a33.197 33.197 0 0 0-.192 2.408c-.044.883-.068 1.83-.081 2.784-.014.95-.017 1.907-.017 2.81 0 .904.003 1.861.017 2.812.013.95.037 1.897.08 2.784.045.883.105 1.706.193 2.408.088.701.2 1.28.348 1.682.155.42.347.786.583 1.102.237.312.513.574.83.779.317.204.675.356 1.077.453.398.097.84.138 1.319.124h.135c.499-.027.951-.104 1.36-.231a3.86 3.86 0 0 0 1.092-.541c.321-.232.598-.51.834-.843.236-.353.428-.732.58-1.162Z" fill="currentColor"/></symbol>
</svg>